<?xml version="1.0" encoding="UTF-8" standalone="no"?>
<!DOCTYPE svg PUBLIC "-//W3C//DTD SVG 1.1//EN" "http://www.w3.org/Graphics/SVG/1.1/DTD/svg11.dtd">
<!-- Created with Vectornator (http://vectornator.io/) -->
<svg height="100%" stroke-miterlimit="10" style="fill-rule:nonzero;clip-rule:evenodd;stroke-linecap:round;stroke-linejoin:round;" version="1.1" viewBox="0 0 1505 333" width="100%" xml:space="preserve" xmlns="http://www.w3.org/2000/svg" xmlns:vectornator="http://vectornator.io" xmlns:xlink="http://www.w3.org/1999/xlink">
<defs/>
<g id="Untitled" vectornator:layerName="Untitled">
<g opacity="1">
<path d="M292.8 88.2C292.9 135.6 293.3 174.6 293.5 174.9C294.1 175.5 304.1 172.1 305.5 170.9C306 170.4 307 170 307.8 170C308.6 170 310.6 169.4 312.3 168.6C316 167 326 163.3 330.7 161.9C332.5 161.4 334.2 160.5 334.5 160C334.9 159.4 336 159 337.1 159C338.2 159 340.2 158.3 341.5 157.4L344 155.8L344 78.9L344 2L318.2 2L292.5 2L292.8 88.2Z" fill="#c7b13b" fill-rule="nonzero" opacity="1" stroke="none"/>
<path d="M390.2 61.2L390.5 120.5L394.3 120.8L398 121.1L398 93.6C398 78.5 398.3 65.5 398.6 64.6C399.1 63.2 402.4 63 424.5 63C446.3 63 449.9 62.8 451.1 61.4C452 60.3 452.1 59.4 451.3 58.2C450.4 56.7 447.1 56.4 424.4 56L398.5 55.5L398.2 34.5C398.1 22.9 398.2 12.5 398.5 11.2L399 9L426.8 9C456.2 9 457 8.9 457 4.3L457 2L423.5 2L390 2L390.2 61.2Z" fill="#c7b13b" fill-rule="nonzero" opacity="1" stroke="none"/>
<path d="M479.2 46.2C479.7 95.8 479.9 97.7 486.9 108.1C494 118.8 505.7 124 522.4 124C537.2 124 549.4 119.3 555.9 111.1C559.7 106.3 563.5 97.9 564.3 92.5C564.7 90.3 565 69.1 565 45.5L565.1 2.5L561.6 2.2L558 1.9L558 44.2C558 89.9 557.6 93.9 552.7 102.3C546.7 112.5 538 116.5 522 116.5C512.2 116.4 511 116.2 504.8 113.2C497.8 109.8 493.2 105.1 489.5 97.5C487.6 93.7 487.5 90.8 487.2 47.7L486.9 2L482.8 2L478.8 2L479.2 46.2Z" fill="#c7b13b" fill-rule="nonzero" opacity="1" stroke="none"/>
<path d="M585 4.3C585 8.7 586.3 9 606.1 9C622.5 9 624.9 9.2 625.4 10.6C625.8 11.5 626 36.6 626 66.4L625.9 120.5L629.7 120.5L633.5 120.5L634 65L634.5 9.5L654 9.2C674.4 8.9 675 8.8 675 4.2L675 2L630 2L585 2L585 4.3Z" fill="#c7b13b" fill-rule="nonzero" opacity="1" stroke="none"/>
<path d="M693.3 46.2C693.7 87.9 693.9 90.9 695.9 97.2C700.1 110.2 708.9 119 721.2 122.4C731.8 125.3 751.7 123.9 759.3 119.7C767.4 115.2 773.7 107.9 776.5 99.8C779.3 91.3 780 81.2 780 41.7L780 2L776 2L772 2L772 44.7C772 69.9 771.5 89.4 770.9 92C768.6 102.5 762.9 109.7 753.3 114.1C749.2 116 746.8 116.4 737 116.4C726 116.5 725.2 116.3 718.8 113.2C711.3 109.6 707.9 106 704.1 98L701.5 92.5L701.3 47.5L701 2.5L696.9 2.2L692.8 1.9L693.3 46.2Z" fill="#c7b13b" fill-rule="nonzero" opacity="1" stroke="none"/>
<path d="M811 61.6L811 121.1L814.8 120.8L818.5 120.5L818.6 95.8C818.7 82.2 819 70.3 819.4 69.5C819.8 68.3 821.8 68 828.6 68C839 68 835.8 65.1 861 97.4L879.5 121L883.8 121C886.1 121 888 120.6 888 120.1C888 119.5 883.4 113.3 877.8 106.2C859.6 83.5 849.5 70.1 849.5 68.8C849.5 68 851.6 67.2 854.8 66.8C865.9 65.2 876.6 56.5 880.4 45.9C882.7 39.6 882.3 24.3 879.7 19.4C876 12.2 868.2 6.9 856.8 3.6C852.5 2.4 846.7 2 831.1 2L811 2L811 61.6ZM856.7 11.6C862.2 13.1 864.4 14.4 868.2 18.1C872 21.9 873 23.6 873.5 27.5C874.6 34.3 873.5 43 871.1 47.8C868.9 52.2 862.2 57.4 857.4 58.6C855.8 59 854.1 59.6 853.5 60C852.2 61 851.6 61 835.1 61.7C826.6 62 820.4 61.8 819.8 61.2C818.6 60 818.6 9.9 819.9 9.1C821.9 7.8 849.9 9.7 856.7 11.6Z" fill="#c7b13b" fill-rule="nonzero" opacity="1" stroke="none"/>
<path d="M911 61.5L911 121L946.5 121L982 121L982 118L982 115L950.8 114.8L919.5 114.5L919.5 89L919.5 63.5L946.1 63.2C972.6 63 972.8 63 973.3 60.8C974.5 56.2 973.5 56 945.4 56L919 56L919 33.1C919 18.8 919.4 9.9 920 9.5C920.6 9.2 933.6 8.9 949 9C976.4 9.1 976.9 9 978 7C980.7 2 980.5 2 944.5 2L911 2L911 61.5Z" fill="#c7b13b" fill-rule="nonzero" opacity="1" stroke="none"/>
<path d="M100.9 65.4C100 66.4 99.5 246.2 100.5 247.2C101.1 247.7 114.6 243 137.5 234.3L150.5 229.3L150.8 147.2C151 81.8 150.8 65 149.8 65C119 64.5 101.7 64.7 100.9 65.4Z" fill="#c7b13b" fill-rule="nonzero" opacity="1" stroke="none"/>
<path d="M197.1 106.4C195.6 108.2 195.6 209.6 197.1 210.5C198.1 211.2 201.3 210.2 228 200.2L246.5 193.2L246.5 149.4L246.5 105.5L222.4 105.2C202.8 105 198.1 105.2 197.1 106.4Z" fill="#c7b13b" fill-rule="nonzero" opacity="1" stroke="none"/>
<path d="M1420.5 150.4C1405.5 155 1395.7 160.7 1389.3 168.4C1385.2 173.5 1380.5 183.2 1379 190.1C1378.2 193.6 1377.9 199.8 1378.2 206.2C1378.9 221.1 1383 229.6 1393.5 237.6C1401.7 243.9 1418.6 250.1 1435.5 253C1455.5 256.4 1466.4 262.5 1469 271.8C1470.3 276.8 1470.3 278.1 1468.4 283.7C1466 291 1460.2 296.4 1451.1 299.7C1443.8 302.4 1442.7 302.5 1425.5 302.5C1414.9 302.5 1405.2 302 1402 301.3C1399 300.6 1393.4 299.3 1389.5 298.4C1385.7 297.6 1381.3 296.6 1379.8 296.3L1377 295.8L1377 307.8C1377 316.4 1377.4 320.1 1378.3 320.7C1382.4 323.3 1397.2 327.5 1408 329C1416.8 330.2 1450.3 330.1 1453 328.9C1453.8 328.5 1457.2 327.4 1460.5 326.5C1471.4 323.4 1472.7 323 1478.6 319.4C1493.5 310.5 1501.2 298.1 1502.6 281.1C1504.6 256 1494.5 240.3 1470.5 230.9C1465.2 228.8 1449.1 224.8 1437 222.5C1432.5 221.7 1425.2 219 1422 217.1C1414.5 212.6 1411 206.9 1411 199C1411 187.6 1417.1 180.2 1428.8 177.4C1436 175.7 1454.7 175.7 1466.5 177.5C1476 178.8 1477.6 179.2 1485.5 181.3C1488.3 182.1 1491.2 182.9 1492 183.1C1493.3 183.4 1493.5 181.5 1493.8 170.8L1494.1 158.1L1490.6 156.6C1485.1 154.3 1471.3 151.2 1461.5 150C1451.3 148.7 1425 149 1420.5 150.4Z" fill="#c7b13b" fill-rule="nonzero" opacity="1" stroke="none"/>
<path d="M393.7 151.7C393.3 152 393 191.6 393 239.6C393 318.2 393.2 326.8 394.6 327.4C396.6 328.2 504.4 328.2 506.4 327.4C507.7 326.9 508 324.7 508 313.9C508 306.8 507.9 300.9 507.8 300.8C507.6 300.7 489.1 300.3 466.5 300L425.5 299.5L425.3 226.2C425.1 185.9 424.8 152.4 424.5 151.9C423.8 150.9 394.7 150.6 393.7 151.7Z" fill="#c7b13b" fill-rule="nonzero" opacity="1" stroke="none"/>
<path d="M539.7 151.7C539.3 152 539 191.6 539 239.6C539 318.2 539.2 326.8 540.6 327.4C542.6 328.2 655.4 328.2 657.4 327.4C659.8 326.5 659.8 301.5 657.4 300.6C656.5 300.3 637 300 613.9 300L572 300L572 276L572 252L606.3 252C631.6 252 640.9 251.7 641.8 250.8C643.5 249.1 643.5 226.9 641.8 225.2C640.9 224.3 631.6 224 606.3 224L572 224L572.2 201.2L572.5 178.5L613.3 178.2L654.1 178L653.8 164.7L653.5 151.5L596.9 151.2C565.8 151.1 540 151.3 539.7 151.7Z" fill="#c7b13b" fill-rule="nonzero" opacity="1" stroke="none"/>
<path d="M744.2 152.2C743.7 152.9 741.5 157.8 739.5 163C737.5 168.2 735.2 173.8 734.5 175.5C733.7 177.1 728.8 189.5 723.5 203C718.2 216.5 713.2 228.8 712.5 230.5C711.7 232.1 708.1 241.1 704.5 250.5C700.8 259.8 697.2 268.8 696.5 270.5C695.7 272.1 690.4 285.4 684.6 300C677.1 318.9 674.5 326.7 675.3 327.2C676 327.6 683.4 328 691.7 328C706.4 328 707 327.9 708.4 325.7C709.8 323.5 719.2 300.1 723.2 288.7C724.3 285.6 726 282.5 727.1 282C728.2 281.3 740.8 281.1 760.2 281.2L791.5 281.5L794.2 287C795.7 290 796.9 293.1 796.9 293.8C797 294.5 797.9 297 798.9 299.3C800 301.6 802.7 308.5 804.9 314.5C807.2 320.6 809.8 326.1 810.7 326.7C812.6 328.2 840.6 328.5 842.7 327.2C843.6 326.6 842.8 323.5 839.5 315C837 308.7 834.6 302.6 834 301.5C833.2 299.6 831.3 294.9 823.8 276C822.2 271.9 820.5 267.5 819.9 266.2C819.4 265 818.6 263 818.1 261.7C816.9 258.9 813.1 249.3 804.5 227.5C800.8 218.1 797.2 209.1 796.5 207.5C794.9 203.9 790.5 192.9 785.5 180C783.4 174.8 781.2 169.1 780.4 167.5C779.7 165.8 778.1 162 777 159C775.8 156 774.4 152.9 773.8 152.3C772.3 150.5 745.7 150.5 744.2 152.2ZM763.7 207.1C765.5 212.3 768.3 219.9 769.9 224C771.5 228.1 774.3 235.5 776.1 240.5C777.9 245.4 779.7 249.9 780.2 250.4C780.6 251 781 252 781 252.7C781 253.7 776.5 254 759.7 254C747.9 254 738.1 253.8 737.8 253.5C737.5 253.2 739.9 246.1 743.2 237.7C746.4 229.4 749.7 220.7 750.5 218.5C752 214.4 756.8 200.5 757.6 198.2C758.6 195.2 760.6 198.1 763.7 207.1Z" fill="#c7b13b" fill-rule="nonzero" opacity="1" stroke="none"/>
<path d="M870.7 151.7C870.3 152 870 191.6 870 239.6L870 327L872.3 327.5C873.5 327.8 886.9 327.9 902 327.7C928.2 327.4 948.6 325.9 952.1 324C953 323.6 955.8 322.9 958.4 322.5C960.9 322.1 963.3 321.4 963.6 320.9C963.9 320.4 965 320 966.2 320C970.6 320 985.9 312.1 994.1 305.5C1005.5 296.3 1014.2 282.7 1018.8 267C1021.8 256.5 1023 230.9 1021 220.7C1016.4 197.6 1004.8 179.5 987.4 168.4C978.8 162.9 965.3 157.1 957.3 155.5C949 153.8 943 153 938.8 153C936.2 153 933.8 152.5 933.5 152C932.8 150.9 871.8 150.6 870.7 151.7ZM935.5 179.3C943.9 180.4 951.3 182.6 958.9 186.1C978.3 195.1 989 213.6 989 238.3C989 256.4 984.1 271.6 975.3 281.1C962.3 295.1 945.2 300.5 915.7 299.8L902.9 299.5L903 239.7C903 206.8 903.2 179.4 903.6 178.9C904.2 177.9 927.6 178.3 935.5 179.3Z" fill="#c7b13b" fill-rule="nonzero" opacity="1" stroke="none"/>
<path d="M1057.7 151.7C1057.3 152 1057 191.6 1057 239.6C1057 318.2 1057.2 326.8 1058.6 327.4C1060.6 328.2 1173.4 328.2 1175.4 327.4C1176.7 326.9 1177 324.7 1177 313.9C1177 306.8 1176.9 300.9 1176.8 300.8C1176.6 300.7 1157 300.3 1133.2 300L1089.9 299.5L1089.9 276L1089.9 252.5L1124.2 252.2C1143 252.1 1158.8 251.6 1159.3 251.1C1160.5 249.9 1160.5 226.1 1159.3 224.9C1158.8 224.4 1143 223.9 1124.2 223.8L1089.9 223.5L1089.9 201.6C1089.9 189.5 1090.3 179.3 1090.7 178.9C1091.2 178.4 1109.6 177.9 1131.5 177.8L1171.5 177.5L1171.5 164.5L1171.5 151.5L1114.9 151.2C1083.8 151.1 1058 151.3 1057.7 151.7Z" fill="#c7b13b" fill-rule="nonzero" opacity="1" stroke="none"/>
<path d="M1212.5 151.9C1211.8 153.1 1211.8 325.9 1212.5 327.1C1213.2 328.2 1241 328.3 1242.7 327.2C1243.7 326.6 1244 318.3 1244.2 293.4L1244.5 260.5L1255.5 260.2L1266.5 260L1277.5 275.5C1305.6 315.1 1313.2 325.6 1314.7 326.7C1316.6 328.1 1349.6 328.6 1351.6 327.2C1352.4 326.8 1350.1 322.8 1345 316C1309.7 267.9 1301 255.6 1301.7 255C1302.1 254.6 1304.8 253.5 1307.6 252.6C1319 248.9 1330.7 239.8 1335.9 230.5C1340.7 222 1342.3 215.5 1342.3 204.5C1342.3 186.7 1337 174.8 1324.9 165.6C1315.9 158.8 1307.3 155.5 1294 153.9C1289.9 153.3 1285.1 152.5 1283.4 151.9C1279.4 150.7 1213.3 150.7 1212.5 151.9ZM1287.7 179.9C1296.9 181.8 1303.8 186.4 1306.8 192.5C1311.5 201.9 1309.4 215.4 1302.2 222.3C1298.7 225.6 1290.3 230 1287.5 230C1286.3 230 1285 230.3 1284.6 230.7C1283.7 231.6 1281.5 231.8 1263.2 232.6C1255.3 232.9 1247.8 232.9 1246.5 232.6L1244 232L1244 205.6C1244 185.4 1244.3 179 1245.3 178.6C1247.7 177.6 1281.6 178.6 1287.7 179.9Z" fill="#c7b13b" fill-rule="nonzero" opacity="1" stroke="none"/>
<path d="M338.4 168.8C336.2 170.3 329.7 174.6 324 178.5C318.3 182.3 313 186 312.1 186.5C311.2 187.1 306.6 190.1 301.8 193.2L293 198.9L292.8 262.2C292.6 297 292.7 325.8 293 326.2C293.7 327.1 341.9 327.4 342.8 326.5C343.8 325.6 344.2 166 343.3 166C342.8 166 340.7 167.3 338.4 168.8Z" fill="#c7b13b" fill-rule="nonzero" opacity="1" stroke="none"/>
<path d="M4.7 211.6C3.5 212.8 3.9 284 5.1 284C5.7 284 7.1 283.5 8.3 282.8C9.5 282.1 11.4 281.5 12.5 281.3C13.6 281.1 14.9 280.5 15.4 280C16 279.4 17 279 17.8 279C18.6 279 20.6 278.4 22.3 277.6C24.1 276.9 27.5 275.5 30 274.5C32.5 273.5 35.9 272.1 37.7 271.4C39.4 270.6 41.4 270 42.2 270C43 270 44 269.6 44.6 269C45.1 268.5 46.5 267.9 47.6 267.7C48.8 267.6 50.9 266.6 52.4 265.7L55 263.9L54.8 237.7L54.5 211.5L29.9 211.2C16.4 211.1 5.1 211.3 4.7 211.6Z" fill="#c7b13b" fill-rule="nonzero" opacity="1" stroke="none"/>
<path d="M232.5 232.5C225.4 236 214.2 241.4 207.8 244.4L196 249.9L196 288.4L196 326.9L220.8 327.2C234.4 327.4 245.8 327.4 246.3 327.2C247.2 326.8 247.2 226 246.3 226C245.8 226 239.7 228.9 232.5 232.5Z" fill="#c7b13b" fill-rule="nonzero" opacity="1" stroke="none"/>
<path d="M142.5 269.6C140.3 270.4 135.1 272 131 273.1C126.9 274.3 121.3 275.8 118.5 276.6C115.8 277.4 111 278.5 108 279.2C105 279.8 101.9 280.7 101.2 281.3C100.3 282 100 287.5 100.2 304.9L100.5 327.5L125.8 327.8L151 328L151 298L151 268L148.8 268.1C147.5 268.1 144.7 268.8 142.5 269.6Z" fill="#c7b13b" fill-rule="nonzero" opacity="1" stroke="none"/>
<path d="M38.5 291C41.5 291.4 35.8 291.7 23.8 291.8L4 292L4 308.9C4 319.1 4.4 326.1 5 326.5C6.3 327.3 52.7 327.3 54 326.5C54.6 326.1 55 318.9 55 307.9L55 290L44.3 290.2C35.7 290.3 34.5 290.5 38.5 291Z" fill="#c7b13b" fill-rule="nonzero" opacity="1" stroke="none"/>
</g>
</g>
</svg>
